<?xml version="1.0" encoding="UTF-8"?>
<svg id="Layer_1" xmlns="http://www.w3.org/2000/svg" version="1.1" viewBox="0 0 633.9 535.2">
  <!-- Generator: Adobe Illustrator 29.0.0, SVG Export Plug-In . SVG Version: 2.1.0 Build 186)  -->
  <defs>
    <style>
      .st0 {
        fill: green;
      }

      .st0, .st1, .st2, .st3 {
        stroke: #fff;
        stroke-width: 2px;
      }

      .st4, .st5 {
        isolation: isolate;
      }

      .st1 {
        fill: blue;
      }

      .st2 {
        fill: red;
      }

      .st6 {
        stroke-width: 3px;
      }

      .st6, .st7 {
        fill: none;
        stroke: #000;
      }

      .st8, .st3 {
        fill: purple;
      }

      .st5 {
        font-family: Arial-BoldMT, Arial;
        font-size: 12px;
        font-weight: 700;
      }
    </style>
  </defs>
  <line class="st6" x1="309.1" y1="120" x2="309.1" y2="300"/>
  <line class="st6" x1="253.7" y1="191.6" x2="209.1" y2="250"/>
  <line class="st6" x1="367.1" y1="187.4" x2="409.1" y2="250"/>
  <line class="st6" x1="209.1" y1="383" x2="209.1" y2="450"/>
  <line class="st6" x1="409.1" y1="386.7" x2="409.1" y2="450"/>
  <circle class="st6" cx="309.1" cy="80" r="40"/>
  <circle class="st2" cx="309.1" cy="90" r="6"/>
  <circle class="st2" cx="294.1" cy="70" r="6"/>
  <circle class="st2" cx="324.1" cy="70" r="6"/>
  <circle class="st2" cx="269.1" cy="80" r="6"/>
  <circle class="st2" cx="349.1" cy="80" r="6"/>
  <circle class="st2" cx="259.1" cy="180" r="8"/>
  <circle class="st2" cx="359.1" cy="180" r="8"/>
  <circle class="st2" cx="209.1" cy="250" r="8"/>
  <circle class="st2" cx="409.1" cy="250" r="8"/>
  <circle class="st2" cx="179.1" cy="280" r="8"/>
  <circle class="st2" cx="439.1" cy="280" r="8"/>
  <circle class="st2" cx="279.1" cy="300" r="8"/>
  <circle class="st2" cx="339.1" cy="300" r="8"/>
  <circle class="st2" cx="209.1" cy="375" r="8"/>
  <circle class="st2" cx="409.1" cy="375" r="8"/>
  <circle class="st2" cx="209.1" cy="450" r="8"/>
  <circle class="st2" cx="409.1" cy="450" r="8"/>
  <circle class="st8" cx="305.4" cy="70" r="4"/>
  <circle class="st3" cx="283.1" cy="70" r="4"/>
  <circle class="st8" cx="314.6" cy="70" r="4"/>
  <circle class="st3" cx="334.1" cy="70" r="4"/>
  <circle class="st3" cx="299.1" cy="100" r="4"/>
  <circle class="st3" cx="319.1" cy="100" r="4"/>
  <circle class="st1" cx="169.1" cy="290" r="4"/>
  <circle class="st1" cx="449.1" cy="290" r="4"/>
  <circle class="st1" cx="164.1" cy="285" r="4"/>
  <circle class="st1" cx="454.1" cy="285" r="4"/>
  <circle class="st1" cx="159.1" cy="280" r="4"/>
  <circle class="st1" cx="459.1" cy="280" r="4"/>
  <circle class="st0" cx="199.1" cy="460" r="4"/>
  <circle class="st0" cx="419.1" cy="460" r="4"/>
  <circle class="st0" cx="219.1" cy="460" r="4"/>
  <circle class="st0" cx="399.1" cy="460" r="4"/>
  <g>
    <g class="st4">
      <text class="st5" transform="translate(355.1 104)"><tspan x="0" y="0">0 (nose)</tspan></text>
    </g>
    <g class="st4">
      <text class="st5" transform="translate(214.8 48.3)"><tspan x="0" y="0">1 (left eye)</tspan></text>
    </g>
    <g class="st4">
      <text class="st5" transform="translate(349.1 48.3)"><tspan x="0" y="0">2 (right eye)</tspan></text>
    </g>
    <g class="st4">
      <text class="st5" transform="translate(201.1 82.5)"><tspan x="0" y="0">3 (left ear)</tspan></text>
    </g>
    <g class="st4">
      <text class="st5" transform="translate(364.6 82.5)"><tspan x="0" y="0">4 (right ear)</tspan></text>
    </g>
    <g class="st4">
      <text class="st5" transform="translate(201.1 34.6)"><tspan x="0" y="0">17 (left eye inner)</tspan></text>
    </g>
    <g class="st4">
      <text class="st5" transform="translate(187.1 121.3)"><tspan x="0" y="0">21 (mouth left)</tspan></text>
    </g>
    <g class="st4">
      <text class="st5" transform="translate(351.1 123.8)"><tspan x="0" y="0">(22 mouth right)</tspan></text>
    </g>
    <g class="st4">
      <text class="st5" transform="translate(152.4 182.4)"><tspan x="0" y="0">5 (left shoulder)</tspan></text>
    </g>
    <g class="st4">
      <text class="st5" transform="translate(378.5 184.9)"><tspan x="0" y="0">6 (right shoulder)</tspan></text>
    </g>
    <g class="st4">
      <text class="st5" transform="translate(195.8 245)"><tspan x="0" y="0">7</tspan></text>
    </g>
    <g class="st4">
      <text class="st5" transform="translate(415.8 245)"><tspan x="0" y="0">8</tspan></text>
    </g>
    <g class="st4">
      <text class="st5" transform="translate(175.8 270)"><tspan x="0" y="0">9</tspan></text>
    </g>
    <g class="st4">
      <text class="st5" transform="translate(432.4 270)"><tspan x="0" y="0">10</tspan></text>
    </g>
    <g class="st4">
      <text class="st5" transform="translate(217.1 284)"><tspan x="0" y="0">11 (left hip)</tspan></text>
    </g>
    <g class="st4">
      <text class="st5" transform="translate(333.1 284)"><tspan x="0" y="0">12 (right hip)</tspan></text>
    </g>
    <g class="st4">
      <text class="st5" transform="translate(114.1 381.3)"><tspan x="0" y="0">13 (left knee)</tspan></text>
    </g>
    <g class="st4">
      <text class="st5" transform="translate(431.1 381.3)"><tspan x="0" y="0">14 (right knee)</tspan></text>
    </g>
    <g class="st4">
      <text class="st5" transform="translate(115 450)"><tspan x="0" y="0">15 (left ankle)</tspan></text>
    </g>
    <g class="st4">
      <text class="st5" transform="translate(425.7 450)"><tspan x="0" y="0">16 (right ankle)</tspan></text>
    </g>
    <line class="st7" x1="169.1" y1="290" x2="119.1" y2="310"/>
    <g class="st4">
      <text class="st5" transform="translate(36.9 315)"><tspan x="0" y="0">23 (left pinky)</tspan></text>
    </g>
    <line class="st7" x1="164.1" y1="285" x2="114.1" y2="290"/>
    <g class="st4">
      <text class="st5" transform="translate(37.2 294)"><tspan x="0" y="0">25 (left index)</tspan></text>
    </g>
    <line class="st7" x1="159.1" y1="280" x2="109.1" y2="270"/>
    <g class="st4">
      <text class="st5" transform="translate(20.3 270)"><tspan x="0" y="0">27 (left thumb)</tspan></text>
    </g>
    <line class="st7" x1="449.1" y1="290" x2="499.1" y2="310"/>
    <g class="st4">
      <text class="st5" transform="translate(504.1 317.5)"><tspan x="0" y="0">24 (right pinky)</tspan></text>
    </g>
    <line class="st7" x1="454.1" y1="285" x2="504.1" y2="290"/>
    <g class="st4">
      <text class="st5" transform="translate(517.3 295)"><tspan x="0" y="0">26 (right index)</tspan></text>
    </g>
    <line class="st7" x1="459.1" y1="280" x2="509.1" y2="270"/>
    <g class="st4">
      <text class="st5" transform="translate(517.3 272)"><tspan x="0" y="0">28 (right thumb)</tspan></text>
    </g>
    <line class="st7" x1="199.1" y1="460" x2="149.1" y2="480"/>
    <g class="st4">
      <text class="st5" transform="translate(70.4 485)"><tspan x="0" y="0">29 (left heel)</tspan></text>
    </g>
    <line class="st7" x1="219.1" y1="460" x2="149.1" y2="500"/>
    <g class="st4">
      <text class="st5" transform="translate(75.4 507.5)"><tspan x="0" y="0">31 (left foot)</tspan></text>
    </g>
    <line class="st7" x1="419.1" y1="460" x2="469.1" y2="480"/>
    <g class="st4">
      <text class="st5" transform="translate(474.1 485)"><tspan x="0" y="0">30 (right heel)</tspan></text>
    </g>
    <line class="st7" x1="399.1" y1="460" x2="469.1" y2="500"/>
    <g class="st4">
      <text class="st5" transform="translate(474.1 507.5)"><tspan x="0" y="0">32 (right foot)</tspan></text>
    </g>
    <line class="st7" x1="272" y1="117.5" x2="299.1" y2="100"/>
    <line class="st7" x1="347.1" y1="120" x2="319.1" y2="99.6"/>
    <g class="st4">
      <text class="st5" transform="translate(155.1 61.4)"><tspan x="0" y="0">18 (left eye outer)</tspan></text>
    </g>
    <g class="st4">
      <text class="st5" transform="translate(315.1 34.6)"><tspan x="0" y="0">19 (right eye inner)</tspan></text>
    </g>
    <g class="st4">
      <text class="st5" transform="translate(367.1 65)"><tspan x="0" y="0">20 (right eye outer)</tspan></text>
    </g>
    <line class="st7" x1="363.7" y1="61.4" x2="334.1" y2="70"/>
    <line class="st7" x1="256.4" y1="58.2" x2="283.1" y2="70"/>
    <line class="st7" x1="275.1" y1="45.3" x2="294.1" y2="70"/>
    <line class="st7" x1="347.1" y1="45.4" x2="324.1" y2="70"/>
    <line class="st7" x1="323.1" y1="37.1" x2="314.4" y2="70"/>
    <line class="st7" x1="292.6" y1="37.1" x2="305.4" y2="70"/>
    <line class="st7" x1="351.7" y1="99.6" x2="310.6" y2="90"/>
  </g>
  <line class="st6" x1="202.9" y1="257" x2="187.4" y2="272.5"/>
  <line class="st6" x1="415.1" y1="256.8" x2="432" y2="274.5"/>
  <line class="st6" x1="308" y1="160.7" x2="267.1" y2="176.2"/>
  <line class="st6" x1="351.1" y1="173.7" x2="308" y2="160.7"/>
  <line class="st6" x1="274.1" y1="306.3" x2="215.1" y2="367.2"/>
  <line class="st6" x1="344.1" y1="306.3" x2="401.1" y2="367"/>
  <line class="st6" x1="309.1" y1="300" x2="287.3" y2="299.8"/>
  <line class="st6" x1="330" y1="300.1" x2="308.2" y2="299.9"/>
</svg>